<?xml version="1.0" encoding="utf-8"?>
<!-- Generator: Adobe Illustrator 15.0.0, SVG Export Plug-In . SVG Version: 6.00 Build 0)  -->
<!DOCTYPE svg PUBLIC "-//W3C//DTD SVG 1.1//EN" "http://www.w3.org/Graphics/SVG/1.1/DTD/svg11.dtd">
<svg version="1.1" id="Layer_1" xmlns="http://www.w3.org/2000/svg" xmlns:xlink="http://www.w3.org/1999/xlink" x="0px" y="0px"
	 width="283.46px" height="283.46px" viewBox="0 0 283.46 283.46" enable-background="new 0 0 283.46 283.46" xml:space="preserve">
<g>
	<g>
		<g>
			<path fill="#7D1D5C" d="M98.158,164.951c0.067,0.525,1.112,2.596,0.96,1.416C99.051,165.842,98.006,163.771,98.158,164.951
				L98.158,164.951z"/>
		</g>
		<g>
			<path fill="#7D1D5C" d="M98.255,164.385c0.102,0.785,1.693,4.004,1.46,2.199C99.613,165.797,98.021,162.578,98.255,164.385
				L98.255,164.385z"/>
		</g>
		<g>
			<path fill="#7D1D5C" d="M98.341,164.328c0.191,1.48,2.422,5.381,1.979,1.959C100.129,164.807,97.898,160.906,98.341,164.328
				L98.341,164.328z"/>
		</g>
		<g>
			<path fill="#7D1D5C" d="M97.785,164.117c0.389,3.006,4.379,6.656,3.781,2.031C101.178,163.143,97.188,159.492,97.785,164.117
				L97.785,164.117z"/>
		</g>
		<g>
			<path fill="#7D1D5C" d="M97.9,163.506c0.257,1.984,1.087,4.523,2.57,5.543c1.448,0.994,1.854-1.232,1.672-2.641
				c-0.257-1.984-1.084-4.523-2.567-5.543C98.127,159.873,97.719,162.1,97.9,163.506L97.9,163.506z"/>
		</g>
		<g>
			<path fill="#7D1D5C" d="M97.416,164.625c0.787,6.088,6.859,7.723,5.902,0.318C102.531,158.855,96.459,157.221,97.416,164.625
				L97.416,164.625z"/>
		</g>
		<g>
			<path fill="#7D1D5C" d="M97.282,162.535c0.396,3.068,1.592,6.877,3.973,8.32c2.224,1.35,3.2-1.791,2.893-4.172
				c-0.396-3.068-1.591-6.881-3.972-8.324C97.952,157.012,96.975,160.152,97.282,162.535L97.282,162.535z"/>
		</g>
		<g>
			<path fill="#7D1D5C" d="M95.995,164.6c1.24,9.598,11.507,10.307,10.131-0.334C104.885,154.668,94.619,153.957,95.995,164.6
				L95.995,164.6z"/>
		</g>
		<g>
			<path fill="#7D1D5C" d="M95.165,164.604c1.492,11.545,14.101,11.783,12.488-0.691C106.161,152.367,93.553,152.127,95.165,164.604
				L95.165,164.604z"/>
		</g>
		<g>
			<path fill="#7D1D5C" d="M95.062,164.199c0.653,5.053,4.398,10.867,8.557,10.789c4.454-0.082,5.438-6.271,4.823-11.025
				c-0.653-5.051-4.396-10.865-8.554-10.789C95.434,153.258,94.447,159.447,95.062,164.199L95.062,164.199z"/>
		</g>
		<g>
			<path fill="#7D1D5C" d="M94.163,164.172c0.769,5.947,5.156,12.459,10.008,12.293c5.144-0.176,6.598-7.148,5.864-12.822
				c-0.769-5.949-5.156-12.461-10.009-12.295C94.883,151.523,93.43,158.498,94.163,164.172L94.163,164.172z"/>
		</g>
		<g>
			<path fill="#7D1D5C" d="M93.131,164.176c0.896,6.936,5.99,14.156,11.595,13.883c5.881-0.287,7.903-8.084,7.038-14.773
				c-0.896-6.936-5.991-14.156-11.596-13.883C94.286,149.691,92.266,157.486,93.131,164.176L93.131,164.176z"/>
		</g>
		<g>
			<path fill="#7D1D5C" d="M91.954,164.223c1.036,8.016,6.904,15.947,13.32,15.545c6.665-0.416,9.364-9.076,8.355-16.883
				c-1.036-8.014-6.902-15.943-13.319-15.542C93.645,147.76,90.945,156.416,91.954,164.223L91.954,164.223z"/>
		</g>
		<g>
			<path fill="#7D1D5C" d="M90.628,164.312c1.188,9.191,7.904,17.836,15.192,17.285c7.496-0.564,10.993-10.127,9.827-19.15
				c-1.188-9.191-7.904-17.836-15.191-17.286C92.96,145.727,89.462,155.289,90.628,164.312L90.628,164.312z"/>
		</g>
		<g>
			<path fill="#7D1D5C" d="M89.147,164.449c1.186,9.295,7.815,19.236,17.211,19.1c7.792-0.111,12.787-11.254,11.46-21.59
				c-1.192-9.285-7.815-19.234-17.208-19.099C92.819,142.973,87.81,154.105,89.147,164.449L89.147,164.449z"/>
		</g>
		<g>
			<path fill="#7D1D5C" d="M87.509,164.637c1.284,9.908,8.999,21.969,19.378,20.982c10.334-0.982,14.536-14.623,13.266-24.195
				c-1.31-9.873-9-21.972-19.379-20.981C90.441,141.428,86.204,155.037,87.509,164.637L87.509,164.637z"/>
		</g>
		<g>
			<path fill="#7D1D5C" d="M85.696,164.873c1.405,11.064,10.115,24.193,21.713,22.938c11.554-1.252,16.661-16.109,15.245-26.975
				c-1.438-11.023-10.113-24.195-21.709-22.938C89.398,139.151,84.237,153.977,85.696,164.873L85.696,164.873z"/>
		</g>
		<g>
			<path fill="#7D1D5C" d="M83.713,165.168c1.529,12.049,10.981,26.561,24.206,24.955c13.174-1.598,18.959-17.908,17.41-29.934
				c-1.548-12.014-10.989-26.558-24.203-24.955C87.952,136.833,82.133,153.109,83.713,165.168L83.713,165.168z"/>
		</g>
		<g>
			<path fill="#9C3347" d="M83.378,165.254c1.525,12.049,10.992,26.562,24.207,24.957c13.166-1.6,18.962-17.906,17.414-29.936
				c-1.545-12.012-10.991-26.558-24.206-24.956C87.617,136.917,81.8,153.201,83.378,165.254L83.378,165.254z"/>
		</g>
		<g>
			<path fill="#BE4727" d="M83.044,165.338c1.523,12.051,10.988,26.557,24.206,24.955c13.177-1.596,18.967-17.898,17.415-29.934
				c-1.55-12.021-10.988-26.56-24.204-24.957C87.29,136.999,81.464,153.279,83.044,165.338L83.044,165.338z"/>
		</g>
		<g>
			<path fill="#BE4727" d="M117.437,185.143c1.407-1.826,2.865-3.592,4.153-5.564c-4.624,3.355-9.248,6.713-13.872,10.068
				c0.127-0.021,0.257-0.043,0.384-0.062c-5.164-2.02-10.331-4.039-15.495-6.059c0.13,0.143,0.261,0.289,0.391,0.432
				c-1.345-1.727-2.688-3.457-4.032-5.186c0.24,0.32,0.442,0.678,0.605,1.066c-1.008-2.17-2.018-4.34-3.026-6.51
				c0.16,0.381,0.284,0.777,0.369,1.189c-0.552-2.4-1.104-4.801-1.655-7.201c0.079,0.379,0.12,0.762,0.121,1.148
				c-0.058-2.379-0.115-4.762-0.172-7.141c-0.011,0.166-0.021,0.336-0.032,0.504c0.404-2.244,0.81-4.488,1.215-6.734
				c-0.033,0.145-0.065,0.287-0.099,0.43c0.834-1.998,1.668-3.994,2.501-5.994c-0.055,0.113-0.108,0.225-0.163,0.336
				c1.229-1.639,2.459-3.275,3.688-4.914c-0.076,0.073-0.153,0.146-0.229,0.219c3.395-1.718,6.788-3.436,10.183-5.153
				c-0.1,0.027-0.198,0.056-0.297,0.084c1.821,0.094,3.645,0.189,5.465,0.283c-0.121-0.025-0.246-0.052-0.367-0.077
				c1.751,0.691,3.504,1.383,5.255,2.072c-0.145-0.084-0.288-0.17-0.433-0.256c1.592,1.234,3.182,2.469,4.773,3.703
				c-0.33-0.26-0.636-0.566-0.912-0.921c1.345,1.729,2.692,3.456,4.037,5.183c-0.197-0.24-0.357-0.518-0.48-0.828
				c1.008,2.17,2.015,4.34,3.022,6.51c-0.031-0.123-0.062-0.244-0.093-0.365c0.609,4.779,1.221,9.559,1.83,14.34
				c-0.002-0.111-0.004-0.223-0.006-0.334c-0.404,2.246-0.812,4.49-1.216,6.736c0.024-0.102,0.051-0.203,0.075-0.307
				c-0.833,2-1.666,3.996-2.499,5.994c0.048-0.092,0.096-0.182,0.144-0.273c-1.229,1.639-2.462,3.275-3.691,4.914
				c0.134-0.191,0.29-0.346,0.465-0.469c-1.593,1.166-3.185,2.332-4.777,3.498c0.451-0.291,0.911-0.482,1.404-0.643
				c-1.802,0.551-3.608,1.105-5.41,1.658c0.92-0.242,1.857-0.389,2.812-0.35c-1.821-0.096-3.643-0.191-5.463-0.285
				c0.062,0.008,0.125,0.014,0.188,0.021c-5.068-14.846-10.137-29.691-15.202-44.537c-0.126,0.182-0.252,0.363-0.378,0.545
				c1.229-1.639,2.457-3.277,3.687-4.916c-0.248,0.316-0.525,0.583-0.832,0.801c1.593-1.166,3.185-2.33,4.777-3.496
				c-0.289,0.202-0.596,0.346-0.92,0.438c1.802-0.552,3.604-1.102,5.406-1.654c-0.323,0.091-0.653,0.13-0.989,0.118
				c1.821,0.095,3.643,0.191,5.464,0.286c-0.546-0.055-1.042-0.173-1.578-0.357c1.751,0.691,3.503,1.382,5.254,2.071
				c-0.765-0.344-1.464-0.773-2.177-1.29c1.592,1.234,3.183,2.471,4.774,3.705c-1.322-1.067-2.503-2.309-3.63-3.718
				c1.345,1.729,2.689,3.456,4.034,5.185c-1.015-1.345-1.935-2.754-2.742-4.315c-6.064,14.454-12.13,28.907-18.193,43.362
				c0.224,0.07,0.443,0.145,0.667,0.215c-1.751-0.691-3.498-1.381-5.25-2.07c3.17,1.344,5.782,4.289,8.905,5.766
				c5.521,2.607,10.76,3.412,16.122,0.697c6.391-3.232,11.957-11.674,12.178-21.141c0.022-0.936,0.162-1.748,0.323-2.646
				c0.514-2.871,0.108-6.039-0.188-9.021c-10.969,7.959-21.937,15.918-32.905,23.877c0.527,0.604,1.046,1.215,1.555,1.844
				c-1.345-1.727-2.69-3.455-4.035-5.184c0.945,1.221,1.84,2.479,2.55,3.945c-1.008-2.17-2.019-4.34-3.027-6.51
				c0.209,0.482,0.386,0.955,0.521,1.475c-0.552-2.4-1.104-4.803-1.656-7.203c0.06,0.309,0.097,0.588,0.109,0.902
				c-0.058-2.379-0.114-4.762-0.171-7.141c0,0.172-0.015,0.344-0.047,0.51c0.404-2.246,0.809-4.49,1.213-6.736
				c-0.03,0.154-0.076,0.299-0.136,0.434c0.833-1.996,1.666-3.994,2.5-5.992c-0.06,0.135-0.129,0.258-0.213,0.365
				c1.229-1.637,2.458-3.276,3.688-4.915c-0.144,0.169-0.285,0.298-0.454,0.422c1.593-1.166,3.186-2.331,4.778-3.496
				c-0.193,0.115-0.384,0.199-0.59,0.274c1.802-0.551,3.604-1.104,5.406-1.655c-0.491,0.135-0.979,0.167-1.488,0.144
				c1.821,0.095,3.643,0.19,5.463,0.285c-0.789-0.072-1.555-0.271-2.324-0.568c1.751,0.691,3.504,1.381,5.255,2.072
				c-0.792-0.335-1.545-0.761-2.273-1.312c1.592,1.234,3.184,2.47,4.776,3.705c-0.499-0.408-0.954-0.853-1.379-1.389
				c1.345,1.729,2.689,3.456,4.033,5.182c-0.246-0.343-0.458-0.691-0.652-1.086c1.008,2.17,2.015,4.34,3.022,6.51
				c-0.123-0.295-0.218-0.576-0.304-0.889c0.552,2.4,1.105,4.799,1.657,7.201c-0.064-0.322-0.105-0.613-0.124-0.941
				c0.058,2.379,0.117,4.76,0.175,7.139c0.002-0.107,0.002-0.217,0.004-0.326c-7.682,7.508-15.366,15.012-23.051,22.514
				c0.252,0.074,0.505,0.145,0.757,0.219c-1.751-0.691-3.503-1.381-5.254-2.07c0.188,0.094,0.378,0.188,0.566,0.283
				c-1.592-1.234-3.184-2.469-4.776-3.703c0.131,0.115,0.265,0.229,0.396,0.342c-1.345-1.727-2.687-3.453-4.031-5.182
				c0.08,0.131,0.154,0.26,0.234,0.391c-1.008-2.17-2.014-4.34-3.021-6.51c0.034,0.143,0.069,0.285,0.104,0.43
				c-0.608-4.781-1.22-9.561-1.828-14.34c-0.006,0.152-0.014,0.307-0.02,0.459c0.404-2.246,0.811-4.49,1.215-6.734
				c-0.04,0.158-0.083,0.316-0.124,0.477c0.834-1.998,1.669-3.994,2.503-5.992c-0.235,0.547-0.497,0.98-0.82,1.441
				c1.23-1.639,2.46-3.277,3.689-4.916c-0.575,0.706-1.18,1.314-1.861,1.841c-2.827,2.867-4.898,6.508-6.189,10.908
				c-1.939,6.611-1.671,14.283,0.612,21.076c3.771,11.215,15.998,22.213,27.96,16.096c1.013-0.518,2.033-1.197,3.031-1.76
				c11.92-6.715,14.451-23.215,10.351-35.482c-3.757-11.24-15.992-22.205-27.958-16.099c-1.013,0.517-2.005,1.208-3.029,1.762
				c7.461,16.028,14.923,32.056,22.386,48.083c5.325-4.107,9.874-13.08,10.202-21.406c0.316-8.035-1.143-15.545-5.179-22.129
				c-4.098-6.685-9.769-10.23-15.778-11.804c-12.863-3.368-22.823,10.835-23.052,22.511c-0.054,2.738-0.266,5.662,0.287,8.406
				c1.569,7.791,1.611,7.723,4.987,14.6c1.481,3.018,3.723,5.744,6.067,7.658c5.162,4.217,6.552,4.877,12.301,7.088
				c2.703,1.039,5.728,0.979,8.32,0.861c11.93-0.539,19.403-13.717,19.981-24.959c0.664-12.914-5.257-24.792-13.615-34.2
				c-5.669-6.381-14.7-7.696-20.897-4.404c-9.795,5.205-13.093,17.725-12.012,28.279c0.032,0.318,0.068,0.643,0.101,0.963
				c-0.058-2.379-0.117-4.762-0.175-7.141c-0.107,1.211-0.373,2.342-0.401,3.57c9.433-6.812,18.866-13.626,28.299-20.439
				c-1.754-0.829-3.335-2.131-4.95-3.369c-3.095-2.371-6.432-3.587-9.876-4.683c-7.275-2.315-15.282,2.564-19.337,9.782
				c-2.099,3.737-3.343,8-3.714,12.73c-0.607,7.74,1.473,14.309,4.853,20.85c3.965,7.672,9.683,12.936,15.726,17.318
				c4.402,3.191,9.7,3.775,14.432,3.582c6.928-0.283,12.219-5.791,16.486-11.951c4.675-6.75,4.765-18.645,1.887-27.072
				c-2.908-8.518-9.838-16.621-17.089-17.468c-7.441-0.87-14.107,0.577-20.044,5.835c-12.897,11.424-9.423,35.852,2.29,47.178
				c7.52,7.27,18.854,8.719,26.774,1.158c2.535-2.42,5.646-7.354,6.579-11.465c1.458-6.422,1.514-8.514,1.146-15.367
				c-0.445-8.279-5.003-16.439-9.781-21.738c-4.289-4.755-10.527-7.338-15.883-6.492c-6.249,0.987-10.506,4.392-14.441,10.414
				c1.23-1.638,2.46-3.276,3.689-4.915c-0.094,0.122-0.188,0.242-0.281,0.363c-3.942,5.096-6.809,9.935-7.401,17.646
				c-0.559,7.268,1.222,14.883,4.854,20.85c3.518,5.779,8.628,9.748,14.062,10.959C106.862,191.141,113.784,189.879,117.437,185.143
				L117.437,185.143z"/>
		</g>
		<g>
			<path fill="#BE4727" d="M117.437,185.143c1.569-2.035,3.187-4.014,4.622-6.213c-4.624,3.355-9.248,6.709-13.872,10.064
				c0.254-0.039,0.512-0.078,0.766-0.119c-5.164-2.02-10.331-4.041-15.495-6.061c-7.417-8.895-9.35-24.889,0.328-33
				c3.395-1.719,6.79-3.438,10.185-5.154c13.538-0.529,21.245,14.184,19.444,26.158c-1.238,4.244-2.476,8.486-3.713,12.73
				c2.119-4.826-10.561,8.607-6.247,6.199c3.024-1.689-5.895,1.5-2.49,0.691c2.644-0.629,8.316,0.443-0.564-0.637
				c-5.064-14.848-10.133-29.693-15.201-44.539c1.344-2.423,3.103-4.176,5.272-5.255c1.189-0.357,2.378-0.713,3.568-1.069
				c3.845,0.447,4.679,0.48,2.501,0.099c5.207,1.001,3.231,1.45,1.077,0.155c-3.974-2.388,4.318,3.761,0.588,0.341
				c-1.438-1.319-6.629-8.068-1.731-1.493c-1.633-2.192-3.064-4.621-4.367-7.145c-6.066,14.454-12.13,28.909-18.199,43.362
				c-5.458-1.736-1.318-0.434,0.082,0.398c1.791,1.064,3.5,2.438,5.202,3.74c2.812,2.154,5.568,4.311,8.619,5.752
				c5.521,2.607,10.763,3.416,16.124,0.701c6.285-3.18,12.103-11.715,12.178-21.143c0.004-0.484,0.01-0.969,0.014-1.453
				c-1.155,6.037-0.866,4.963,0.475-2.939c0.64-3.768,0.42-7.857-0.046-11.809c-10.971,7.957-21.94,15.918-32.909,23.877
				c1.014,1.16,2.01,2.336,2.99,3.545c-5.027-6.193-1.485-1.783-0.419-0.102c1.206,1.902,2.971,6.045-1.244-3.152
				c1.214,2.648,1.091,6.408-0.649-3.84c-1.724-10.154,3.621-19.68,10.092-23.664c-2.369,1.46,6.502-1.7,3.776-1.094
				c-1.749,0.389-5.425-0.175,2.992,0.375c-1.309-0.085-2.619-0.467-3.899-0.916c7.979,2.797,2.949,1.188,0.831-0.271
				c6.451,4.445,4.397,3.551,2.829,2.087c-3.241-3.023,3.987,5.624,2.061,2.798c-1.306-1.914-1.982-5.497,1.942,4.352
				c0.77,1.932,1.348,7.043,1.281,10.76c-7.684,7.504-15.364,15.012-23.051,22.514c-4-12.646-8.005-25.289-12.009-37.934
				c-1.3,2.023-0.709,1.256,1.771-2.307c-0.843,0.997-1.9,1.801-2.797,2.561c-8.456,7.174-8.926,21.633-5.574,31.984
				c3.639,11.24,15.989,22.207,27.957,16.098c2.025-1.033,4.071-2.396,6.066-3.521c11.917-6.713,14.453-23.203,10.352-35.482
				c-3.757-11.244-15.987-22.203-27.957-16.099c-2.025,1.033-4.018,2.413-6.066,3.522c7.464,16.027,14.92,32.057,22.382,48.084
				c7.477-6.092,11.401-15.385,12.895-24.633c1.125-6.967-0.991-17.746-4.999-23.365c-5.265-7.383-10.604-11.361-17.885-13.23
				c-12.872-3.305-22.773,10.783-23.049,22.514c-0.529,22.578,16.098,46.416,39.777,45.117
				c13.147-0.721,22.286-14.842,22.129-27.523c-0.201-16.182-8.29-30.216-18.332-41.95c-16.228-18.961-34.841,7.297-32.909,23.875
				c-0.3-2.693-0.086-5.268,0.643-7.722c-0.605,3.257-1.399,6.288-1.426,9.651c9.435-6.816,18.872-13.627,28.307-20.443
				c-3.508-1.658-6.675-4.263-9.905-6.738c-4.629-3.546-9.344-5.651-14.505-7.293c-7.274-2.316-15.355,2.585-19.34,9.782
				c-5.763,10.411-4.237,23.246,1.139,33.578c5.418,10.414,13.576,19.402,23.137,26.076c14.516,10.131,28.617,1.27,36.757-9.354
				c8.955-11.688,2.271-41.846-15.203-44.541c-8.294-1.279-17.915,0.315-24.626,6.922c-13.365,13.158-9.586,38.213,3.231,50.498
				c7.778,7.457,19.52,8.508,27.807,1.498c7.819-6.611,9.365-18.541,8.398-28.301c-0.964-9.73-5.088-18.818-10.959-25.251
				c-4.475-4.903-10.646-7.704-16.227-6.863c-2.091,0.315-4.169,0.892-6.17,1.776c-1.593,1.166-3.184,2.333-4.776,3.499
				c-4.608,6.117-4.922,6.548-0.937,1.297c-8.512,11.134-9.909,26.448-2.548,38.495C93.749,188.906,108.46,195.803,117.437,185.143
				L117.437,185.143z"/>
		</g>
		<g>
			<path fill="#BE4727" d="M129.623,189.719c1.407-1.828,2.865-3.592,4.152-5.566c-4.624,3.357-9.245,6.713-13.869,10.068
				c0.127-0.021,0.253-0.041,0.38-0.061c-5.164-2.02-10.329-4.039-15.493-6.059c0.13,0.145,0.263,0.287,0.393,0.432
				c-1.345-1.729-2.691-3.455-4.036-5.184c0.241,0.32,0.445,0.674,0.609,1.064c-1.008-2.17-2.02-4.342-3.027-6.512
				c0.159,0.381,0.281,0.777,0.366,1.189c-0.552-2.4-1.103-4.801-1.654-7.201c0.08,0.379,0.122,0.762,0.124,1.148
				c-0.058-2.379-0.112-4.76-0.17-7.139c-0.011,0.168-0.025,0.334-0.037,0.502c0.404-2.244,0.812-4.488,1.216-6.732
				c-0.033,0.143-0.063,0.285-0.097,0.43c0.833-1.998,1.666-3.998,2.499-5.996c-0.055,0.113-0.11,0.225-0.165,0.336
				c1.229-1.639,2.461-3.275,3.69-4.914c-0.076,0.072-0.154,0.146-0.231,0.219c3.395-1.717,6.788-3.435,10.183-5.152
				c-0.099,0.027-0.197,0.055-0.296,0.082c1.82,0.097,3.643,0.19,5.464,0.287c-0.122-0.027-0.245-0.052-0.367-0.077
				c1.751,0.69,3.504,1.381,5.255,2.07c-0.145-0.084-0.288-0.169-0.433-0.255c1.593,1.234,3.181,2.471,4.773,3.703
				c-0.33-0.26-0.632-0.568-0.908-0.922c1.345,1.727,2.688,3.455,4.033,5.184c-0.197-0.242-0.357-0.518-0.48-0.828
				c1.008,2.168,2.019,4.338,3.026,6.508c-0.031-0.121-0.062-0.244-0.093-0.365c0.609,4.779,1.218,9.562,1.827,14.342
				c-0.002-0.111-0.004-0.225-0.006-0.336c-0.404,2.246-0.811,4.49-1.215,6.736c0.024-0.102,0.051-0.203,0.075-0.305
				c-0.833,1.998-1.666,3.996-2.499,5.996c0.048-0.092,0.096-0.186,0.144-0.277c-1.229,1.639-2.462,3.279-3.691,4.916
				c0.134-0.188,0.288-0.346,0.463-0.469c-1.593,1.168-3.185,2.33-4.777,3.496c0.451-0.291,0.91-0.479,1.403-0.641
				c-1.803,0.553-3.607,1.104-5.409,1.654c0.92-0.24,1.856-0.387,2.812-0.348c-1.821-0.094-3.643-0.188-5.463-0.283
				c0.062,0.008,0.125,0.014,0.188,0.021c-5.067-14.846-10.137-29.691-15.201-44.539c-0.126,0.182-0.253,0.363-0.379,0.545
				c1.229-1.639,2.461-3.275,3.69-4.914c-0.248,0.316-0.528,0.584-0.835,0.802c1.593-1.167,3.186-2.333,4.777-3.499
				c-0.289,0.201-0.596,0.35-0.92,0.442c1.802-0.551,3.604-1.103,5.405-1.655c-0.323,0.091-0.651,0.13-0.987,0.118
				c1.821,0.095,3.642,0.19,5.463,0.285c-0.546-0.055-1.042-0.172-1.578-0.357c1.751,0.691,3.506,1.381,5.257,2.072
				c-0.765-0.344-1.469-0.771-2.183-1.289c1.593,1.235,3.186,2.468,4.778,3.704c-1.323-1.066-2.504-2.311-3.631-3.719
				c1.345,1.729,2.689,3.457,4.034,5.184c-1.015-1.344-1.933-2.752-2.74-4.313c-6.064,14.454-12.133,28.907-18.197,43.36
				c0.224,0.072,0.449,0.145,0.673,0.217c-1.751-0.691-3.502-1.383-5.253-2.072c3.169,1.342,5.784,4.291,8.907,5.766
				c5.521,2.607,10.757,3.416,16.12,0.701c6.391-3.232,11.96-11.676,12.18-21.143c0.022-0.936,0.16-1.746,0.32-2.646
				c0.514-2.871,0.111-6.041-0.186-9.023c-10.968,7.959-21.938,15.916-32.907,23.875c0.526,0.604,1.046,1.217,1.555,1.846
				c-1.345-1.727-2.691-3.455-4.036-5.184c0.945,1.223,1.838,2.479,2.549,3.945c-1.008-2.17-2.016-4.338-3.023-6.508
				c0.209,0.482,0.382,0.953,0.517,1.473c-0.552-2.4-1.102-4.801-1.653-7.203c0.059,0.309,0.095,0.59,0.107,0.902
				c-0.058-2.379-0.112-4.76-0.17-7.139c0,0.172-0.017,0.344-0.049,0.508c0.404-2.244,0.808-4.492,1.212-6.736
				c-0.03,0.154-0.073,0.299-0.133,0.436c0.833-1.998,1.668-3.994,2.502-5.992c-0.06,0.133-0.133,0.254-0.216,0.363
				c1.229-1.639,2.458-3.275,3.688-4.912c-0.144,0.166-0.284,0.297-0.453,0.422c1.592-1.167,3.185-2.334,4.777-3.5
				c-0.193,0.115-0.385,0.201-0.591,0.276c1.802-0.552,3.604-1.103,5.406-1.655c-0.491,0.135-0.979,0.168-1.488,0.146
				c1.821,0.095,3.642,0.188,5.463,0.284c-0.789-0.074-1.554-0.271-2.323-0.566c1.751,0.689,3.503,1.381,5.254,2.071
				c-0.792-0.337-1.543-0.761-2.271-1.312c1.593,1.234,3.187,2.469,4.779,3.703c-0.499-0.408-0.958-0.852-1.383-1.389
				c1.345,1.729,2.688,3.455,4.032,5.184c-0.246-0.344-0.456-0.693-0.65-1.088c1.008,2.17,2.017,4.34,3.024,6.51
				c-0.123-0.293-0.22-0.574-0.306-0.887c0.552,2.4,1.104,4.801,1.655,7.201c-0.064-0.32-0.102-0.615-0.12-0.941
				c0.058,2.379,0.113,4.76,0.171,7.139c0.002-0.107,0.004-0.217,0.006-0.326c-7.684,7.504-15.363,15.012-23.049,22.514
				c0.252,0.074,0.505,0.145,0.757,0.219c-1.751-0.691-3.507-1.383-5.258-2.072c0.188,0.094,0.382,0.189,0.57,0.285
				c-1.592-1.234-3.187-2.469-4.778-3.705c0.131,0.115,0.265,0.229,0.396,0.342c-1.345-1.727-2.69-3.453-4.035-5.182
				c0.08,0.131,0.16,0.26,0.24,0.393c-1.008-2.17-2.015-4.34-3.022-6.512c0.034,0.145,0.065,0.289,0.1,0.432
				c-0.609-4.779-1.216-9.561-1.824-14.34c-0.007,0.152-0.013,0.305-0.019,0.457c0.404-2.244,0.806-4.488,1.211-6.732
				c-0.041,0.158-0.08,0.316-0.121,0.475c0.834-1.996,1.666-3.994,2.5-5.994c-0.235,0.547-0.495,0.984-0.818,1.445
				c1.229-1.639,2.459-3.277,3.688-4.915c-0.575,0.704-1.181,1.312-1.862,1.839c-2.826,2.867-4.896,6.51-6.187,10.91
				c-1.939,6.611-1.67,14.285,0.612,21.076c3.768,11.213,15.995,22.213,27.956,16.098c1.013-0.518,2.035-1.201,3.032-1.762
				c11.918-6.707,14.458-23.207,10.354-35.482c-3.759-11.242-15.993-22.202-27.957-16.099c-1.013,0.517-2.006,1.206-3.03,1.761
				c7.463,16.027,14.918,32.059,22.381,48.084c5.327-4.109,9.88-13.078,10.207-21.404c0.315-8.035-1.143-15.549-5.18-22.131
				c-4.099-6.684-9.769-10.233-15.779-11.805c-12.855-3.362-22.826,10.827-23.05,22.512c-0.053,2.738-0.264,5.66,0.288,8.404
				c1.568,7.791,1.61,7.723,4.986,14.602c1.48,3.016,3.722,5.742,6.066,7.658c5.162,4.217,6.552,4.875,12.3,7.086
				c2.702,1.041,5.729,0.979,8.321,0.861c11.933-0.541,19.408-13.713,19.98-24.957c0.657-12.918-5.256-24.793-13.617-34.2
				c-5.67-6.379-14.701-7.697-20.897-4.404c-9.795,5.205-13.1,17.718-12.008,28.278c0.033,0.318,0.063,0.641,0.096,0.963
				c-0.058-2.381-0.116-4.758-0.174-7.139c-0.106,1.213-0.373,2.342-0.401,3.572c9.435-6.814,18.87-13.627,28.304-20.441
				c-1.754-0.829-3.336-2.133-4.952-3.371c-3.095-2.371-6.435-3.586-9.877-4.68c-7.274-2.312-15.281,2.563-19.336,9.782
				c-2.099,3.737-3.345,8-3.716,12.73c-0.608,7.74,1.471,14.309,4.852,20.85c3.965,7.672,9.685,12.936,15.727,17.316
				c4.401,3.193,9.696,3.777,14.429,3.584c6.929-0.281,12.223-5.793,16.49-11.953c4.675-6.746,4.767-18.643,1.89-27.07
				c-2.909-8.523-9.839-16.613-17.093-17.467c-7.441-0.876-14.11,0.577-20.043,5.834c-12.896,11.428-9.424,35.846,2.29,47.176
				c7.52,7.273,18.856,8.717,26.774,1.158c2.535-2.418,5.648-7.354,6.581-11.463c1.458-6.42,1.51-8.516,1.141-15.367
				c-0.446-8.281-5.001-16.441-9.779-21.74c-4.286-4.753-10.53-7.342-15.884-6.491c-6.246,0.991-10.51,4.388-14.438,10.415
				c1.229-1.639,2.457-3.277,3.687-4.916c-0.094,0.121-0.188,0.244-0.282,0.365c-3.941,5.098-6.806,9.93-7.398,17.643
				c-0.559,7.268,1.218,14.883,4.85,20.85c3.517,5.781,8.632,9.75,14.065,10.961C119.046,195.717,125.973,194.457,129.623,189.719
				L129.623,189.719z"/>
		</g>
		<g>
			<path fill="#BE4727" d="M107.419,174.49c1.52,12.043,10.986,26.562,24.205,24.955c13.176-1.602,18.964-17.904,17.414-29.936
				c-1.548-12.016-10.993-26.557-24.206-24.955C111.662,146.152,105.837,162.434,107.419,174.49L107.419,174.49z"/>
		</g>
		<g>
			<path fill="#BE4727" d="M98.359,156.99c1.531,12.047,10.983,26.559,24.209,24.957c13.181-1.598,18.964-17.898,17.416-29.934
				c-1.546-12.025-10.992-26.562-24.211-24.957C102.6,128.657,96.789,144.936,98.359,156.99L98.359,156.99z"/>
		</g>
		<g>
			<path fill="#BE4727" d="M89.307,139.493c1.526,12.044,10.984,26.562,24.206,24.954c13.171-1.602,18.968-17.904,17.414-29.935
				c-1.553-12.019-10.992-26.557-24.208-24.955C93.546,111.155,87.727,127.436,89.307,139.493L89.307,139.493z"/>
		</g>
		<g>
			<path fill="#A23A2E" d="M89.028,145.75c1.525,12.047,10.99,26.555,24.205,24.955c13.172-1.594,18.96-17.91,17.416-29.934
				c-1.542-12.01-10.995-26.554-24.204-24.956C93.271,117.41,87.451,133.696,89.028,145.75L89.028,145.75z"/>
		</g>
		<g>
			<path fill="#853034" d="M88.754,152.01c1.53,12.047,10.987,26.562,24.206,24.955c13.169-1.602,18.963-17.9,17.414-29.935
				c-1.547-12.02-10.998-26.562-24.209-24.957C92.999,123.673,87.174,139.95,88.754,152.01L88.754,152.01z"/>
		</g>
		<g>
			<path fill="#853034" d="M75.525,159.576c1.526,12.049,10.995,26.561,24.212,24.957c13.172-1.598,18.961-17.9,17.411-29.936
				c-1.548-12.025-10.987-26.559-24.207-24.956C79.767,131.239,73.955,147.521,75.525,159.576L75.525,159.576z"/>
		</g>
		<g>
			<path fill="#853034" d="M62.304,167.146c1.528,12.045,10.984,26.559,24.205,24.955c13.175-1.598,18.965-17.904,17.415-29.936
				c-1.548-12.016-10.985-26.56-24.207-24.955C66.541,138.81,60.725,155.092,62.304,167.146L62.304,167.146z"/>
		</g>
		<g>
			<path fill="#752722" d="M76.864,173.883c0.808,0.381,1.617,0.766,2.413,1.172c0.663,0.34,1.32,0.727,1.964,1.145
				c-6.598-4.115-9.912-11.939-9.949-23.471c1.238-4.244,2.478-8.485,3.715-12.729c-0.144,0.276-0.287,0.552-0.431,0.829
				c2.822-2.804,5.642-5.608,8.464-8.413c19.775-7.656,20.36,24.271,19.896,35.333c-2.741,3.314-3.271,4.158-1.59,2.533
				c-3.461,2.365-4.24,2.98-2.364,1.932c3.074-1.719-5.99,1.258-2.405,0.83c3.139-0.375-5.945-1.035-0.822,0.223
				c-3.671-1.6-4.501-1.924-2.493-0.979c0.281,0.166,0.562,0.328,0.844,0.492c-2.438-1.398-4.477-3.494-6.111-6.289
				c-5.659-8.43-5.312-20.187,0.735-28.313c3.294-2.098,3.921-2.576,1.879-1.433c4.78-2.565,3.117-0.793,0.721-0.611
				c5.941-0.449,0.948-0.136-0.979-0.682c5.952,1.687-0.214-0.354-1.974-1.547c4.146,12.158,8.298,24.315,12.447,36.472
				c-1.9,5.781-4.519,8.428-8.601,11.354c1.673-1.199,5.576-1.527-1.783,0.244c0.849-0.205,1.727-0.254,2.594-0.311
				c3.378-0.217-5.993-0.895-0.913,0.158c3.673,0.762-5.243-2.457-1.794-0.799c1.955,1.17,1.116,0.443-2.518-2.18
				c1.736,1.697,0.993,0.645-2.224-3.156c1.345,2.285,0.747,0.971-1.801-3.947c-2.434-7.922-1.665-15.264,1.624-21.801
				c2.645-5.256,5.813-6.412,9.307-7.224c-1.627,0.378-5.047-0.181,1.882,0.382c-2.027-0.165-5.839-2.354,0.855,0.76
				c-0.259-0.146-0.518-0.294-0.777-0.44c2.527,1.466,4.693,3.667,6.327,6.558c3.523,6.234,4.31,13.512,2.465,21.467
				c-5.505,8.102-6.868,10.723-4.094,7.869c-1.065,0.795-2.128,1.59-3.193,2.385c2.016-0.943,1.124-0.746-2.671,0.592
				c0.628-0.148,1.264-0.232,1.908-0.258c-2.466,0.346-4.86-0.203-7.185-1.645c1.951,1.201,1.247,0.637-2.107-1.697
				c1.714,1.896,1.126,1.129-1.764-2.299c-1.969-4.744-2.471-5.812-1.503-3.209c-3.385-10.352-0.726-21.477,8.126-28.168
				c-6.636,4.248-11.462,11.023-12.179,21.143c-0.669,9.436,2.186,19.49,8.888,26.033c3.042,2.971,6.656,5.576,10.018,8.064
				c8.532,6.315,19.878,0.65,24.587-7.711c5.86-10.406,3.926-23.191-1.138-33.58c-0.643-1.318-1.336-2.418-2.153-3.576
				c-3.854-5.457,1.513-1.262,2.019,7.125c-0.847-10.902-8.365-22.317-18.742-24.669c-9.991-2.265-19.047,5.979-21.837,15.776
				c2.352-5.096,2.945-6.54,1.764-4.385c-1.813,3.309,4.161-5.129,1.583-2.056c-0.631,0.751-1.334,1.382-2.044,2.001
				c1.119-0.84,2.238-1.68,3.357-2.521c10.488-4.621,19.482,5.366,23.679,13.815c-3.291-11.564-16.268-22.01-27.959-16.097
				c-12.2,6.171-13.751,23.362-10.351,35.481c3.848,13.713,18.513,25.144,32.235,18.381c8.401-4.141,14.344-12.768,17.273-21.852
				c-13.526-2.965-27.054-5.93-40.58-8.895c0.424,7.012,2.971,11.988,5.766,17.906c1.025,2.174,2.681,3.771,3.73,5.967
				c7.816-13.766,15.637-27.527,23.449-41.293c4.923,3.791,0.438,0.18-0.468-0.656c-1.095,15.727-2.194,31.451-3.292,47.176
				c8.595-5.305,13.424-14.41,14.677-24.205c1.211-9.471-1.429-19.057-6.035-27.325c-6.02-10.805-17.811-19.874-30.517-17.665
				c-16.801,2.92-25.592,20.904-24.117,37.015c1.372,14.992,11.518,28.344,26.041,32.668c11.523,3.432,23.004-2.762,29.306-12.387
				c9.616-14.689,3.499-35.738-7.282-48.002c-15.333-17.443-44.315-11.245-51.376,10.919c-4.204,13.196,1.197,28.663,12.448,36.474
				c7.83,5.436,17.107,7.584,25.62,6.846c12.613-1.092,21.494-12.184,25.263-23.527c4.526-13.625,0.327-31.061-10.307-40.54
				c-7.442-6.634-16.636-9.797-25.355-8.611c-11.245,1.529-20.489,10.852-23.522,21.695c-4.778,17.083,2.438,40.169,20.481,45.743
				c18.681,5.771,29.657-17.4,27.113-32.949c-2.054-12.553-10.04-23.543-21.523-29.036c-11.721-5.606-23.941,1.56-27.09,13.705
				C61.14,150.043,64.525,167.131,76.864,173.883L76.864,173.883z"/>
		</g>
		<g>
			<path fill="#5D1A0C" d="M77.936,158.018c1.957,0.926,3.91,1.854,5.841,2.889c1.014,0.543,2.005,1.162,2.994,1.787
				c3.354,2.123-4.572-4.334-0.233-0.016c-0.879-1.154-1.758-2.309-2.636-3.463c2.411,4.037,1.381,0.748-3.081-9.865
				c-0.85-10.251,2.499-18.156,9.724-22.426c2.134-1.261,4.635-1.522,7.12-0.883c-2.132-0.457-1.396-0.057,2.214,1.196
				c-2.033-1.167-1.293-0.541,2.224,1.881c4.386,4.081,5.448,10.496,5.37,16.824c-0.28,1.535-0.563,3.068-0.844,4.604
				c-1.976,4.252-2.389,5.252-1.222,3.062c1.771-3.322-4.321,4.682-0.245,0.799c1.339-1.275,4.686-3.205-1.498,0.98
				c1.001-0.678,2.057-1.227,3.115-1.75c3.132-1.545-5.974,1.506-2.524,0.705c1.111-0.258,2.258-0.318,3.393-0.371
				c3.395-0.16-6.03-0.686-0.762,0.02c1.303,0.174,2.598,0.504,3.886,0.854c1.582,0.432,5.104,2.145-1.466-0.678
				c1.197,0.514,2.351,1.199,3.489,1.924c-5.668-3.607-3.395-2.799-1.781-1.254c1.672,1.832,0.931,0.832-2.227-3.002
				c1.383,2.27,0.816,0.924-1.694-4.037c1.747,3.873-1.301-7.874-0.756-3.453c0.055-5.406-0.036-6.736-0.267-3.991
				c1.003-4.804,1.127-5.905,0.374-3.304c1.751-3.93,2.025-4.689,0.826-2.28c-1.362,2.149-0.874,1.575,1.463-1.724
				c-1.338,1.679-5.753,4.338,0.21,0.42c-1.006,0.661-2.096,1.117-3.171,1.574c6.237-2.654,1.5-0.497-0.411-0.22
				c-1.229,0.177-2.479,0.189-3.724,0.208c6.437-0.089,0.594-0.087-0.959-0.349c-1.303-0.22-2.597-0.565-3.89-0.91
				c-1.387-0.369-7.312-2.831-1.122-0.22c-3.224-1.359-6.338-3.205-9.349-5.307c4.149,12.157,8.299,24.314,12.45,36.471
				c0.698-2.33,0.095-0.947-1.812,4.152c1.151-2.014,0.28-0.928-2.611,3.256c0.29-0.357,0.606-0.691,0.917-1
				c2.44-2.426-5.425,3.662-2.521,1.752c0.872-0.574,1.81-0.988,2.74-1.391c4.629-2-5.664,1.295-0.591,0.264
				c1.168-0.236,2.367-0.359,3.546-0.447c0.606-0.045,1.224-0.061,1.832-0.074c3.763-0.074-5.543-0.445-1.717-0.127
				c1.567,0.131,3.144,0.428,4.688,0.789c0.613,0.145,1.231,0.32,1.841,0.502c3.679,1.098-5.279-2.283-1.691-0.727
				c1.134,0.492,2.274,1.119,3.318,1.797c1.89,1.225,1.07,0.619-2.502-2.049c0.719,0.568,1.421,1.244,2.047,1.922
				c1.636,1.771,0.88,0.869-2.255-2.986c0.557,0.758,1.018,1.621,1.472,2.479c-2.215-5.1-2.824-6.34-1.897-3.748
				c1.503,4.201-1.3-7.623-0.843-3.123c-0.708-6.965,0.479-9.406,2.49-13.914c-1.171,2.059-0.368,1.066,2.411-2.975
				c-1.185,1.521-4.278,3.318,2.462-1.455c-1.741,1.232-6.713,2.416,0.906,0.273c-1.424,0.402-2.902,0.529-4.369,0.617
				c-3.452,0.203,6.03,0.686,0.841,0.045c-1.538-0.189-3.11-0.572-4.587-1.057c-2.04-0.668-1.187-0.373,2.642,1.061
				c-0.829-0.355-1.632-0.814-2.433-1.279c-4.561-2.64,4.39,4.279,0.695,0.374c3.113,4.341,3.876,5.243,2.286,2.706
				c1.993,4.688,2.508,5.75,1.551,3.184c1.049,5.455,1.394,6.807,1.027,4.057c0.058,1.721,0.111,3.439,0.169,5.16
				c-1.11,5.102-1.327,6.422-0.65,3.961c-2.04,4.463-2.496,5.6-1.342,3.475c1.931-3.555-4.088,4.83-1.365,1.998
				c3.884-4.041-4.904,2.742-0.076,0.195c4.81-2.535-4.289,0.9-0.828,0.021c1.845-0.469,7.752-0.318,0.202-0.725
				c2.259,0.121,6.828,2.6-0.089-0.654c0.642,0.326,1.271,0.699,1.885,1.113c-5.504-3.48-2.737-2.193-1.163-0.672
				c4.511,4.361-2.406-3.752-0.088-0.27c0.464,0.695,0.898,1.449,1.312,2.193c2.404,4.316-2.711-6.629-1.022-1.938
				c0.816,2.764,0.552,1.508-0.799-3.762c0.048,0.375,0.093,0.75,0.141,1.125c-0.432-3.371-0.161-6.578,0.811-9.619
				c-0.725,2.438-0.262,1.373,1.385-3.189c0.814-1.102,1.627-2.199,2.441-3.299c3.461-2.256,4.118-2.783,2.085-1.551
				c-15.565,9.436-15.738,35.172-3.292,47.178c4.788,4.617,10.15,8.456,15.262,12.425c19.684,15.283,32.531-20.673,26.477-34.782
				c-2.009-4.68-3.993-8.941-6.774-12.893c-0.88-1.25-1.769-2.48-2.627-3.756c-1.449-2.484-1.158-1.65,0.868,2.498
				c-1.47-4.461-1.226-1.738,0.731,8.168c0.081-11.256-3.582-23.85-13.663-29.737c-11.334-6.619-23.954,1.935-27.09,13.704
				c-0.802,3.008,3.208-7.062,1.686-3.953c-0.468,0.957-1.046,1.82-1.608,2.678c-2.02,3.078,4.419-5.475,0.849-1.184
				c-0.857,1.033-1.777,1.971-2.708,2.889c-0.691,0.686-1.429,1.293-2.165,1.895c5.988-4.889,3.038-2.145,1.154-1.287
				c3.919-1.785,6.553-1.678,11.627,0.738c4.469,2.66,7.646,6.775,9.531,12.35c-0.258-0.68-0.451-1.398-0.613-2.104
				c-2.672-11.639-16.374-21.828-27.955-16.1c-12.341,6.105-13.383,23.338-10.354,35.482c4.033,16.174,22.206,30.382,38.262,19.554
				c10.048-6.778,18.427-16.345,21.833-28.19c-13.581-5.35-27.166-10.689-40.751-16.031c-0.122,9.836,1.844,19.729,6.58,28.406
				c0.999,1.83,2.094,3.49,3.264,5.145c1.456,2.062,5.257,9.443,1.616,1.111c8.821-11.596,17.648-23.188,26.475-34.781
				c-4.503-3.455,4.084,3.26-0.537-0.451c-1.773-1.424-3.487-2.963-5.175-4.564c-1.101,15.725-2.198,31.449-3.295,47.176
				c8.256-4.66,14.369-12.396,16.205-21.795c2.519-12.893,0.492-26.791-5.479-37.689c-6.617-12.075-16.762-24.611-32.025-25.948
				c-14.35-1.257-29.027,5.7-36.123,18.937c-9.376,17.488-5.349,42.926,9.637,55.967c23.189,20.183,59.891,10.963,63.045-22.188
				c1.729-18.16-8.323-37.599-22.396-46.216c-9.244-5.661-19.393-8.372-31.392-7.32c-14.665,1.285-27.437,11.096-31.508,25.463
				c-3.791,13.378,1.097,28.472,12.448,36.474c22.248,15.684,58.551,17.484,71.343-11.402c8.005-18.074,5.99-40.257-7.813-54.95
				c-8.82-9.388-21.795-13.323-34.35-12.986c-12.351,0.332-22.503,9.237-29.407,18.869c-12.849,17.925-4.855,48.971,13.79,59.467
				c7.229,4.07,16.861,4.938,23.645,0.645c11.161-7.062,15.981-21.771,13.339-34.703c-2.433-11.904-9.049-22.379-18.872-29.473
				c-3.444-2.487-7.13-4.291-10.774-6.046c-11.729-5.649-23.943,1.569-27.091,13.706C62.208,134.184,65.603,151.258,77.936,158.018
				L77.936,158.018z"/>
		</g>
		<g>
			<path fill="#5D1A0C" d="M73.684,188.953c3.759,13.826,18.522,25.202,32.23,18.315c8.397-4.22,14.367-12.827,17.273-21.954
				c-13.525-2.965-27.052-5.93-40.577-8.895c0.428,6.979,2.958,11.988,5.767,17.871c1.029,2.154,2.682,3.725,3.735,5.9
				c9.408-12.529,18.819-25.057,28.226-37.588c-1.787-1.402-3.532-2.834-5.23-4.428c-1.101,15.725-2.197,31.449-3.294,47.177
				c8.566-5.358,13.421-14.421,14.681-24.245c1.219-9.5-1.452-19.096-6.024-27.389c-5.979-10.842-17.758-19.905-30.476-17.788
				c-16.783,2.795-25.63,20.864-24.082,36.918c1.44,14.943,11.53,28.363,26.089,32.573c11.563,3.342,23.035-2.827,29.365-12.491
				c9.658-14.742,3.481-36.031-7.229-48.083c-6.719-7.56-17.126-10.666-27.236-9.954c-11.706,0.824-20.646,9.848-23.991,20.697
				c-4.078,13.221,1.104,28.756,12.45,36.475c7.882,5.361,17.188,7.529,25.74,6.742c12.654-1.166,21.522-12.238,25.36-23.607
				c4.605-13.645,0.313-31.012-10.234-40.584c-7.372-6.69-16.62-9.813-25.266-8.666c-11.201,1.487-20.471,10.821-23.436,21.654
				c-4.641,16.953,2.354,40.254,20.553,45.709c18.881,5.66,29.602-17.379,27.187-32.973c-1.952-12.602-9.999-23.489-21.429-29.063
				c-11.721-5.716-23.934,1.605-27.09,13.705c-3.305,12.669,0.32,30.187,12.45,36.474c0.765,0.396,1.599,0.773,2.384,1.182
				c0.657,0.342,1.31,0.73,1.947,1.15c-6.618-4.08-9.958-11.898-10.02-23.449c1.237-4.244,2.477-8.484,3.714-12.729
				c-0.146,0.277-0.294,0.553-0.44,0.83c2.821-2.805,5.642-5.609,8.465-8.413c19.779-7.619,20.267,24.354,19.77,35.386
				c-2.754,3.322-3.287,4.17-1.61,2.545c-3.475,2.371-4.265,2.99-2.393,1.941c3.053-1.707-6.004,1.26-2.437,0.848
				c3.126-0.359-5.963-1.037-0.867,0.248c-3.681-1.602-4.521-1.922-2.518-0.961c0.279,0.164,0.56,0.33,0.839,0.496
				c-2.447-1.389-4.495-3.48-6.143-6.271c-5.576-8.422-5.414-20.135,0.65-28.257c3.275-2.087,3.889-2.556,1.845-1.406
				c4.761-2.568,3.066-0.772,0.678-0.578c5.899-0.483,0.901-0.109-1.028-0.64c5.914,1.623-0.257-0.312-2.034-1.492
				c4.15,12.156,8.3,24.314,12.449,36.473c-1.863,5.785-4.565,8.488-8.634,11.391c3.82-2.725-5.109,1.051-1.812,0.277
				c0.844-0.197,1.714-0.242,2.575-0.293c3.37-0.193-5.999-0.9-0.938,0.191c3.66,0.791-5.249-2.459-1.816-0.771
				c1.949,1.186,1.104,0.465-2.533-2.162c1.726,1.715,0.979,0.67-2.236-3.131c1.331,2.297,0.723,0.988-1.822-3.93
				c-2.443-7.9-1.688-15.225,1.602-21.756c2.665-5.293,5.776-6.326,9.271-7.166c-1.603,0.387-5.102-0.092,1.864,0.412
				c-1.997-0.145-5.913-2.27,0.842,0.799c-0.261-0.145-0.524-0.289-0.785-0.434c2.524,1.477,4.692,3.689,6.316,6.586
				c3.509,6.258,4.281,13.562,2.436,21.525c-5.523,8.109-6.891,10.744-4.107,7.902c-1.067,0.801-2.137,1.604-3.204,2.404
				c2.017-0.932,1.123-0.727-2.679,0.617c0.627-0.143,1.261-0.223,1.903-0.24c-2.467,0.357-4.862-0.178-7.193-1.609
				c1.946,1.217,1.242,0.662-2.112-1.668c-2.653-3.697-3.247-4.455-1.774-2.268c-1.966-4.73-2.469-5.787-1.51-3.176
				c-3.389-10.326-0.738-21.428,8.108-28.092c-6.624,4.311-11.455,10.984-12.178,21.145c-0.672,9.439,2.211,19.443,8.883,26.035
				c1.613,1.594,3.552,3.014,5.235,4.429c7.338,6.16,18.293,8.461,25.678,0.904c9.987-10.218,8.393-26.495,2.552-38.495
				c-0.641-1.316-1.34-2.395-2.159-3.541c-3.867-5.412,1.497-1.275,2.016,7.195c-0.855-10.908-8.365-22.322-18.744-24.672
				c-9.982-2.26-19.066,5.963-21.838,15.779c2.343-5.09,2.942-6.527,1.77-4.361c-1.805,3.334,4.151-5.123,1.58-2.023
				c-0.63,0.76-1.335,1.396-2.044,2.025c1.119-0.834,2.234-1.668,3.354-2.502c10.508-4.576,19.495,5.416,23.686,13.883
				c-3.299-11.551-16.26-22.021-27.957-16.098C71.842,159.646,70.1,176.748,73.684,188.953L73.684,188.953z"/>
		</g>
		<g>
			<path fill="#5D1A0C" d="M106.34,180.363c-0.003-0.055-0.007-0.111-0.01-0.166c0.058,2.379,0.114,4.758,0.172,7.137
				c0.001-0.166,0.014-0.324,0.035-0.486c-0.404,2.244-0.811,4.488-1.215,6.732c0.04-0.215,0.096-0.41,0.169-0.609
				c-0.834,1.998-1.669,3.996-2.502,5.994c0.108-0.25,0.235-0.467,0.387-0.676c-1.229,1.637-2.461,3.275-3.69,4.914
				c0.205-0.254,0.428-0.463,0.675-0.646c-1.593,1.168-3.184,2.333-4.776,3.501c0.271-0.182,0.545-0.316,0.842-0.418
				c-1.802,0.553-3.605,1.104-5.407,1.656c0.051-0.016,0.102-0.029,0.152-0.043c1.796-0.539,3.605-1.104,5.408-1.654
				c3.453-1.765,6.288-4.573,8.467-8.415c3.134-5.523,4.425-12.754,3.541-19.867c-0.912-7.344-4.089-14.25-8.713-18.896
				c-1.592-1.234-3.189-2.469-4.781-3.703c-3.481-1.986-7.048-2.771-10.712-2.355c-1.981,0.561-4.48,0.836-6.402,2.113
				c-5.312,3.529-5.134,3.51-9.14,9.059c-1.385,1.916-2.242,4.541-2.988,6.969c-1.637,5.322-1.436,9.092-1.131,14.842
				c0.552,2.4,1.105,4.801,1.657,7.201c1.6,4.65,3.952,8.561,7.058,11.693c4.457,4.497,10.098,6.712,15.49,6.062
				c5.568-0.67,10.641-4.34,13.873-10.067c0.833-2,1.669-3.996,2.502-5.994C106.576,189.818,106.921,185.191,106.34,180.363
				L106.34,180.363z"/>
		</g>
		<g>
			<path fill="#5D1A0C" d="M123.323,173.406c-0.002-0.051-0.004-0.102-0.006-0.152c0.058,2.379,0.114,4.76,0.172,7.139
				c0-0.1,0.007-0.199,0.022-0.297c-0.404,2.246-0.808,4.492-1.213,6.736c0.03-0.148,0.07-0.279,0.121-0.418
				c-0.833,2-1.669,4-2.502,5.996c0.062-0.135,0.13-0.256,0.208-0.375c-1.229,1.639-2.461,3.277-3.689,4.914
				c0.152-0.197,0.314-0.355,0.503-0.496c-1.592,1.166-3.184,2.332-4.776,3.496c0.166-0.105,0.332-0.186,0.512-0.254
				c-1.802,0.553-3.604,1.105-5.406,1.656c0.046-0.014,0.093-0.027,0.139-0.041c1.795-0.555,3.604-1.105,5.406-1.656
				c3.453-1.764,6.287-4.572,8.466-8.414c3.135-5.523,4.426-12.752,3.542-19.865c-0.912-7.346-4.09-14.25-8.715-18.896
				c-1.592-1.234-3.184-2.469-4.775-3.703c-3.48-1.986-7.054-2.773-10.717-2.356c-1.993,0.585-4.213,0.771-6.057,1.95
				c1.108-0.709-4.056,2.391-5.279,3.996c-4.12,5.404-3.86,4.451-6.449,11.418c-1.73,4.654-1.339,9.514-1.127,14.602
				c0.553,2.4,1.104,4.803,1.656,7.203c1.599,4.65,3.953,8.561,7.06,11.693c4.457,4.496,10.099,6.709,15.491,6.061
				c5.568-0.672,10.641-4.34,13.873-10.066c0.833-1.998,1.664-3.998,2.497-5.996C123.556,182.861,123.904,178.236,123.323,173.406
				L123.323,173.406z"/>
		</g>
		<g>
			<path fill="#5D1A0C" d="M140.48,173.588c-0.008-0.096-0.002-0.189,0.019-0.279c-0.404,2.246-0.808,4.488-1.212,6.734
				c0.013-0.045,0.024-0.086,0.037-0.131c-0.833,1.998-1.666,3.998-2.499,5.996c0.034-0.088,0.079-0.168,0.133-0.236
				c-1.229,1.637-2.457,3.277-3.687,4.916c0.057-0.076,0.119-0.139,0.188-0.193c-1.593,1.168-3.185,2.332-4.777,3.498
				c0.12-0.08,0.232-0.133,0.365-0.178c1.593-1.164,3.187-2.33,4.779-3.496c2.826-2.867,4.896-6.51,6.188-10.91
				c1.939-6.613,1.709-14.262-0.616-21.076c-2.325-6.812-6.613-12.391-11.833-15.396c-1.751-0.691-3.5-1.382-5.251-2.072
				c-3.784-0.821-7.41-0.365-10.872,1.37c-3.666,1.206-6.701,5.263-9.021,8.781c-1.868,2.832-3.965,9.488-3.906,13.375
				c0.035,2.357,0.115,4.758,0.173,7.139c0.647,5.031,2.202,9.619,4.679,13.711c3.494,5.773,8.627,9.752,14.061,10.961
				c5.614,1.252,11.331-0.535,15.65-4.869c1.229-1.639,2.461-3.277,3.69-4.914C138.863,182.568,140.102,178.326,140.48,173.588
				L140.48,173.588z"/>
		</g>
		<g>
			<path fill="#5D1A0C" d="M115.669,164.473c1.525,12.047,10.985,26.559,24.207,24.957c13.175-1.598,18.967-17.904,17.415-29.938
				c-1.551-12.023-10.991-26.561-24.209-24.955C119.913,136.136,114.093,152.416,115.669,164.473L115.669,164.473z"/>
		</g>
		<g>
			<path fill="#792817" d="M109.358,158.592c1.287,9.959,8.547,17.555,16.139,16.641c7.517-0.904,12.898-10,11.61-19.959
				c-1.288-9.957-8.547-17.549-16.139-16.635C113.452,139.543,108.071,148.633,109.358,158.592L109.358,158.592z"/>
		</g>
		<g>
			<path fill="#983620" d="M103.05,152.717c1.526,11.803,15.397,10.115,13.875-1.662C115.398,139.253,101.526,140.94,103.05,152.717
				L103.05,152.717z"/>
		</g>
		<g>
			<path fill="#983620" d="M102.551,154.352c0.275,0.354,0.466,0.799,0.563,1.441c-0.062,0.859-0.121,1.721-0.183,2.58
				c0.287-0.898,0.243-0.854-0.128,0.135c0.572-1.236,1.355-2.305,2.024-3.445c1.096-1.869,1.947-4.125,2.21-6.525
				c0.147-1.344,0.128-2.689-0.075-4.055c-0.159-1.067-0.417-2.107-0.782-3.086c-0.375-1.004-0.359-0.838,0.08,0.515
				c-0.115,1.54-0.229,3.083-0.344,4.624c-1.384,4.121-5.176,3.314-2.139,3.119c-1.295,0.084,1.061,0.152,1.101,0.158
				c0.75,0.109,1.504,0.307,2.252,0.494c0.384,0.096,3.11,1.178,1.211,0.334c3.694,1.641,7.608,0.301,9.029-4.567
				c1.238-4.244-0.448-10.514-4.151-12.157c-3.882-1.723-7.693-2.527-11.705-2.557c-6.018-0.043-10.985,7.281-8.551,15.248
				c0.925,3.025-0.343-0.601,0.318-2.835c0.616-2.083-0.328,0.318-0.643,0.832c-1.072,1.751-1.916,3.509-2.7,5.542
				c-2.574,6.676,0.763,13.617,4.548,18.465c2.834,3.627,7.806,2.174,9.787-1.338C106.675,163.023,105.383,157.979,102.551,154.352
				L102.551,154.352z"/>
		</g>
		<g>
			<path fill="#983620" d="M91.083,163.949c-2.596-3.268-1.8-3.908,0.102-7.166c2.668-4.57,5.345-8.498,6.075-14.5
				c0.363-2.987-0.618-6.417-1.724-9.105c-1.465-3.563,0.619,4.055-1.227,5.228c-0.292,0.186,1.957-0.236,2.6-0.253
				c3.85-0.105,8.756,1.315,12.225,2.885c8.675,3.926,13.626-12.769,4.878-16.727c-6.611-2.992-13.56-4.615-20.396-4.426
				c-7.87,0.216-13.921,8.294-11.2,18.833c0.233,0.638,0.487,1.266,0.752,1.885c0.56,1.807,0.579,1.34,0.066-1.401
				c-0.089,0.287-1.374,2.441-1.908,3.316c-1.835,3.005-3.588,5.979-4.811,9.388c-3.267,9.109,0.545,19,6.507,26.305
				c2.865,3.512,7.789,2.199,9.786-1.338C95.193,172.646,93.938,167.545,91.083,163.949L91.083,163.949z"/>
		</g>
		<g>
			<path fill="#983620" d="M92.94,188.064c3.554-4.66,7.135-9.244,10.309-14.369c2.111-3.41,3.798-7.186,5.314-11.115
				c0.555-1.438,0.873-3.404,1.087-4.973c0.107-0.793,0.209-1.598,0.293-2.4c-0.548,1.113-0.515,1.324,0.101,0.686
				c1.271-1.318,8.285,0.09,11.122-0.26c6.16-0.762,9.551-7.109,8.739-15.054c-1.211-11.853-15.079-10.125-13.874,1.661
				c0.255-2.97,1.213-4.604,2.871-4.904c-0.889,0.213-1.853,0.146-2.762,0.141c-2.156-0.012-4.309-0.215-6.46-0.111
				c-4.671,0.225-9.734,3.02-12.043,8.335c-1.038,2.39-1.498,4.813-1.812,7.573c-0.311,2.736-2.054,5.256-3.23,7.377
				c-2.55,4.598-5.662,8.551-8.713,12.553c-2.603,3.414-3.545,8.402-0.85,12.832C85.27,189.709,90.329,191.488,92.94,188.064
				L92.94,188.064z"/>
		</g>
		<g>
			<path fill="#983620" d="M87.332,198.553c8.388,3.422,16.914,4.633,23.815-2.512c4.826-4.996,7.001-12.855,10.779-18.998
				c1.271-2.066,3.172-3.523,5.351-3.879c2.691-0.441,5.714,0.322,8.163-0.217c10.807-2.375,8.429-17.338,5.311-26.033
				c-3.927-10.95-16.668-4.572-12.77,6.461c0.603,1.705,1.357,3.523,1.738,5.328c0.133,1.285,0.193,1.439,0.182,0.467
				c0.267-1.992,1.104-3.447,2.488-4.279c1.518-0.914-0.36-0.121-1.086-0.105c-1.26,0.023-2.529-0.068-3.791-0.078
				c-6.384-0.041-11.858,3.377-16.029,9.201c-3.267,4.561-5.229,10.348-8.062,15.34c-1.145,2.02-1.943,2.832-3.715,3.66
				c-1.665,0.779-5.276-0.18-7.493-1.084c-3.719-1.518-7.585-0.385-9.031,4.57C81.969,190.551,83.603,197.031,87.332,198.553
				L87.332,198.553z"/>
		</g>
		<g>
			<path fill="#983620" d="M80.511,184.9c12.224-2.854,16.563-19.762,21.453-29.295c2.933-5.719,5.921-9.82,11.923-9.235
				c6.893,0.673,12.389,0.291,15.645-8.337c3.895-10.32-9.313-17.819-13.175-7.588c0.695-1.842,2.866-2.077,1.04-1.949
				c-0.469,0.033-1.659-0.18-2.129-0.234c-3.007-0.343-5.974-0.449-8.891,0.276c-6.041,1.502-10.334,6.198-14.026,12.161
				c-3.275,5.29-5.931,11.258-8.832,16.911c-1.327,2.584-2.727,5.098-4.261,7.469c-1.165,1.803,0.12,0.01-1.101,1.365
				c-1.346,1.496,1.399,0.025,0.09,0.16C69.269,167.518,71.565,185.814,80.511,184.9L80.511,184.9z"/>
		</g>
		<g>
			<path fill="#983620" d="M73.019,154.188c0.333,0.396,1.084,2.289,0.495,0.51c0.348,1.051,0.155,0.213,0.196-0.523
				c0.137-2.479,0.963-4.789,1.812-7.301c2-5.916,4.996-11.23,7.965-16.31c1.276-2.184,2.618-4.298,3.998-6.369
				c0.489-0.735,0.996-1.451,1.507-2.161c-1.737,2.413,1.98-2.182,2.476-2.643c1.546-1.437,4.631,0.503,6.162,1.274
				c3.842,1.936,7.572,4.229,11.451,6.028c8.665,4.02,12.971-12.467,4.881-16.726c-8.23-4.332-18.43-11.128-27.894-7.957
				c-5.703,1.911-10.442,10.9-14.093,16.968c-8.28,13.765-18.964,34.895-7.021,49.467C71.697,176.672,79.913,162.387,73.019,154.188
				L73.019,154.188z"/>
		</g>
		<g>
			<path fill="#983620" d="M86.82,178.844c7.69-0.285,16.521-8.398,21.573-14.824c1.969-2.504,3.655-5.141,5.004-8.291
				c1.577-3.682,2.16-7.977,4.199-11.238c2.931-4.688,8.818-5.652,12.396-9.401c6.803-7.129-2.217-22.025-9.055-14.862
				c-3.381,3.542-8.067,5.112-11.635,8.59c-2.324,2.267-4.271,5.408-5.581,8.792c-1.215,3.137-1.749,6.688-3.269,9.593
				c-2.354,4.501-6.172,7.763-9.863,10.196c-1.572,1.035-3.214,1.902-4.879,2.686c-0.568,0.268-1.147,0.494-1.729,0.711
				c1.754-0.658,1.096-0.27,0.574-0.25C75.514,160.877,77.855,179.176,86.82,178.844L86.82,178.844z"/>
		</g>
		<g>
			<path fill="#983620" d="M98.358,185.201c10.164,8.508,32.331,21.817,40.945,3.787c1.933-4.043,2.262-8.674,2.33-13.559
				c0.062-4.51,1.029-7.686,2.539-11.537c3.715-9.482,5.245-20.311,1.616-30.141c-4.005-10.848-16.876-4.466-12.769,6.463
				c2.399,6.384-0.492,11.973-2.547,17.48c-2.359,6.326-2.668,12.154-2.938,19.217c-0.345,8.984-18.155-3.537-21.112-5.971
				c-3.335-2.742-7.428-2.848-9.789,1.336C94.606,175.869,95.009,182.443,98.358,185.201L98.358,185.201z"/>
		</g>
		<g>
			<path fill="#993429" d="M114.241,158.846c0.034-1.477-0.052-1.697-0.257-0.666c-0.554,1.291-1.259,2.49-1.887,3.717
				c-1.479,2.887-2.187,5.814-2.694,9.203c-0.341,2.273-0.072,2.016,0.991-0.908c-0.236,0.145-2.212-0.596-2.136-0.574
				c-2.17-0.605-4.562-2.4-6.469-3.932c-3.357-2.693-7.41-2.881-9.791,1.338c-2.009,3.559-1.546,10.203,1.725,12.922
				c7.053,5.859,20.146,13.633,27.085,3.281c2.352-3.508,2.076-8.365,4.066-12.197c3.023-5.822,4.021-11.529,2.136-18.645
				C123.985,140.965,111.244,147.522,114.241,158.846L114.241,158.846z"/>
		</g>
		<g>
			<path fill="#993333" d="M104.29,165.887c-2.909-2.23-5.82-4.463-8.729-6.691c-3.409-2.613-7.82,0.428-9.028,4.57
				c-0.644,2.207-0.574,4.754,0.201,7.025c0.854,2.502,2.206,3.801,3.945,5.133c2.91,2.229,5.819,4.461,8.729,6.689
				c3.409,2.613,7.821-0.43,9.029-4.57c0.645-2.207,0.57-4.754-0.205-7.025C107.378,168.518,106.029,167.221,104.29,165.887
				L104.29,165.887z"/>
		</g>
		<g>
			<path fill="#993333" d="M96.914,174.572c-0.14-2.4,0.489-4.496,1.897-6.223c1.127-1.379,1.052-0.619,0.173-0.252
				c-0.681,0.283-0.608,0.236,0.332-0.096c-0.562,0.139-1.146,0.199-1.714,0.256c-0.403,0.039-0.82,0.053-1.227,0.062
				c-2.022,0.049,1.347,0.176-0.714-0.033c-1.013-0.104-2.018-0.344-3.017-0.641c0.844,0.367,0.902,0.385,0.189,0.053
				c-1.544-0.723,1.181,1.211,0.002,0.1c1.192,1.152,1.734,2.816,1.628,4.996c-0.223,0.805-0.442,1.609-0.665,2.414
				c0.469-0.76,0.431-0.766-0.113-0.02c1.195-1.529,2.744-2.48,3.989-3.92c2.763-3.193,3.438-8.584,0.853-12.832
				c-2.345-3.854-7.137-5.229-9.904-2.029c-3.43,3.965-6.885,6.209-8.034,12.66c-1.244,6.99,3.414,13.785,8.378,15.803
				c4.261,1.73,8.867,2.355,13.134,1.297c4.784-1.186,10.162-5.631,8.685-13.258c-0.953-4.92-4.039-8.803-8.068-8.316
				C99.198,165.018,95.958,169.643,96.914,174.572L96.914,174.572z"/>
		</g>
		<g>
			<path fill="#993333" d="M99.467,176.463c-0.518-1.51,0.136-3.42,0.621-4.57c-0.707,1.678,1.021-0.955-0.336,0.281
				c1.232-1.125-0.608,0.203-0.821,0.307c-1.138,0.555-1.168,0.465-2.056,0.668c-3.714,0.85-7.306,0.74-11.062-0.322
				c-2.183-0.617,0.933,0.547-0.926-0.434c-1.544-0.814,1.64,2.51,0.121,0.064c0.794,1.279,1.03,3.076,0.408,4.41
				c0.417-0.893,0.81-1.182,1.664-2.041c2.687-2.699,5.979-4.219,9.034-6.113c7.906-4.896,2.095-22.124-5.866-17.193
				c-5.885,3.645-12.542,6.895-16.344,13.764c-4.635,8.375-1.031,20.682,7.359,24.449c12.158,5.461,38.28-0.293,30.971-19.73
				C108.233,159.359,95.664,165.383,99.467,176.463L99.467,176.463z"/>
		</g>
		<g>
			<path fill="#993333" d="M84.317,152.59c0.008,0.023,0.016,0.047,0.023,0.07c0.619-3.553,1.242-7.107,1.861-10.661
				c-2.915,2.884-4.492,7.462-2.798,12.427c2.006,5.875,7.437,7.561,11.716,8.211c4.13,0.625,8.316,0.529,12.438,0.582
				c1.429,0.018,2.86,0.004,4.291,0.084c0.797,0.045,1.592,0.139,2.389,0.25c2.688,0.375,0.247,1.438-2.185-2.523
				c-0.52-1.523-1.038-3.049-1.558-4.572c0.014,0.1,0.026,0.199,0.04,0.297c1.665,11.756,15.521,10.104,13.874-1.66
				c-1.358-9.697-9.173-9.848-14.891-10.085c-3.263-0.136-6.521-0.095-9.785-0.196c-1.077-0.033-2.161-0.15-3.233-0.283
				c-0.561-0.07-1.13-0.175-1.687-0.288c-1.947-0.396-2.121-1.799,0.354,1.555c0.52,1.522,1.04,3.046,1.561,4.569
				c0.602,3.43-3.525,8.527-1.474,6.496c2.425-2.398,3.128-6.834,1.86-10.662c-0.008-0.023-0.018-0.047-0.025-0.07
				C93.43,135.003,80.632,141.463,84.317,152.59L84.317,152.59z"/>
		</g>
		<g>
			<path fill="#993333" d="M91.158,147.203c6.638-3.233,12.588-8.281,19.211-11.583c2.656-1.324,5.799-2.289,8.056-1.855
				c0.738,0.142,1.243,0.462,1.439,0.721c1.546,2.033,2.193,4.747,2.846,7.361c1.214,4.86,6.129,6.98,9.321,5.366
				c3.767-1.905,4.559-7.04,3.447-11.827c-2.525-10.885-11.978-22.825-23.979-19.512c-9.347,2.58-17.67,9.626-26.211,14.138
				C77.404,134.175,82.884,151.234,91.158,147.203L91.158,147.203z"/>
		</g>
		<g>
			<path fill="#993333" d="M94.758,159.158c6.805-3.246,10.634-11.059,16.437-16.118c4.096-3.57,9.085-3.781,12.584,1.703
				c5.987,9.382,16.434-1.448,10.753-10.802c-5.038-8.296-14.644-14.103-24.349-10.628c-4.152,1.486-7.94,4.405-11.211,7.984
				c-3.298,3.609-5.892,8.67-10.08,10.668C80.583,145.929,86.463,163.115,94.758,159.158L94.758,159.158z"/>
		</g>
		<g>
			<path fill="#993333" d="M98.359,171.111c6.373-2.742,9.141-9.887,11.746-17.369c2.823-8.107,10.676-8.32,16.671-5.311
				c8.622,4.33,13.365-12.317,4.881-16.726c-8.498-4.415-19.048-4.736-26.671,1.624c-3.499,2.918-5.706,6.711-7.592,11.534
				c-1.303,3.33-1.939,7.779-4.903,9.057C84.072,157.545,89.979,174.721,98.359,171.111L98.359,171.111z"/>
		</g>
		<g>
			<path fill="#8B2D2D" d="M97.763,183.486c5.016,0.01,8.396-3.223,11.973-7.109c3.889-4.227,9.696-5.678,14.75-6.115
				c9.002-0.779,6.689-19.072-2.264-18.297c-5.292,0.459-10.415,2.094-15.189,4.766c-2.238,1.252-4.396,2.934-6.349,4.785
				c-1.938,1.834-2.619,3.678-5.185,3.674C86.44,165.174,88.811,183.473,97.763,183.486L97.763,183.486z"/>
		</g>
		<g>
			<path fill="#7C2626" d="M93.806,193.289c5.073,4.393,10.456,7.629,16.432,6.705c5.7-0.881,10.066-6.125,13.008-12.045
				c4.745-9.551-6.729-21.219-11.514-11.586c-2.811,5.656-4.989,6.889-9.861,2.668C94.132,172.332,85.986,186.52,93.806,193.289
				L93.806,193.289z"/>
		</g>
		<g>
			<path fill="#7C2626" d="M100.343,167.631c-0.686-0.299-0.34-0.027,1.029,0.818c0.784,1.299,1.564,2.598,2.349,3.896
				c0.135,0.641,0.271,1.279,0.405,1.918c-0.496,3.68-0.539,4.758-0.132,3.23c-0.654,2.275-0.363,0.824-0.005,0.129
				c0.298-0.574,0.643-1.109,0.979-1.645c0.065-0.104,1.396-1.992,0.486-0.783c2.185-2.904,4.67-5.424,7.232-7.742
				c3.041-2.752,3.229-8.924,0.853-12.832c-2.548-4.188-6.865-4.779-9.904-2.029c-4.123,3.729-8.19,8.123-11.157,13.447
				c-2.967,5.322-3.629,15.656,2.985,18.318c3.724,1.498,7.578,0.402,9.028-4.568C105.701,175.646,104.076,169.135,100.343,167.631
				L100.343,167.631z"/>
		</g>
		<g>
			<path fill="#7C2626" d="M100.41,157.465c-1.681-1.203-3.181-2.559-4.398-4.512c-0.723-1.156-0.203-1.449-0.374-0.541
				c0.622-3.303,3.722-4.885,6.13-5.926c8.414-3.637,2.51-20.814-5.866-17.194c-6.556,2.833-13.152,9.31-14.043,18.805
				c-1.004,10.711,5.141,20.172,13.672,26.094C103.686,179.854,108.527,163.268,100.41,157.465L100.41,157.465z"/>
		</g>
		<g>
			<path fill="#7C2626" d="M119.116,156.174c-4.241-9.463-5.68-19.93-5.969-30.144c-0.141-4.976-4.62-8.734-8.071-8.318
				c-4.11,0.495-5.977,4.985-5.805,9.977c0.464,13.5,3.232,27.073,9.094,39.286c2.097,4.369,7.232,4.707,9.901,2.029
				C121.452,165.809,121.221,160.537,119.116,156.174L119.116,156.174z"/>
		</g>
		<g>
			<path fill="#7C2626" d="M136.503,158.869c2.432-18.282-5.156-38.108-18.887-50.171c-7.644-6.715-15.828,7.477-8.065,14.257
				c9.265,8.091,14.646,20.511,12.966,32.812C120.955,167.203,134.88,170.24,136.503,158.869L136.503,158.869z"/>
		</g>
		<g>
			<path fill="#7C2626" d="M108.858,134.723c-1.867-5.945-6.854-8.208-11.188-9.238c-3.391-0.806-7.015-1.146-10.257,0.027
				c-3.623,1.312-4.936,7.476-3.45,11.826c1.714,5.021,5.706,6.675,9.32,5.366c-2.875,1.042-0.805,0.38,0.235,0.398
				c-2.165-0.041-0.582-0.021-0.121,0.021c0.639,0.061,1.276,0.162,1.914,0.271c0.491,0.083,0.983,0.198,1.473,0.313
				c0.446,0.105,2.58,0.914,0.536,0.069c0.396,0.163,0.775,0.384,1.153,0.612c-1.035-0.873-1.266-1.041-0.694-0.498
				c-0.726-0.732-1.291-1.632-1.69-2.704c1.489,4.742,5.923,7.084,9.32,5.365C108.973,144.749,110.347,139.461,108.858,134.723
				L108.858,134.723z"/>
		</g>
		<g>
			<path fill="#7C2626" d="M69.683,112.8c-8.786,13.692-18.522,31.684-6.602,46.717c2.841,3.584,7.803,2.176,9.787-1.338
				c2.397-4.25,1.11-9.299-1.725-12.92c-2.432-3.108,8.414-18.194,10.051-20.876C86.647,115.451,75.132,103.868,69.683,112.8
				L69.683,112.8z"/>
		</g>
		<g>
			<path fill="#7C2626" d="M70.619,141.924c-8.208,8.459-10.913,22.332-4.679,32.369c5.726,9.217,16.853-1.449,10.755-10.801
				c-1.637-2.512-0.342-0.666-0.315-0.473c0.137,1.002,0.641-1.814,0.67-1.904c0.551-1.699,1.49-3.26,2.625-4.33
				C86.767,150.1,77.714,135.235,70.619,141.924L70.619,141.924z"/>
		</g>
		<g>
			<path fill="#7C2626" d="M81.445,183.912c0.425-1.264,0.85-2.523,1.274-3.787c1.226-3.648-0.059-8.416-2.556-10.924
				c-3.057-3.07-7.696-2.658-9.788,1.336c-2.71,5.178-3.8,11.928-1.237,18.09c1.881,4.523,5.62,7.236,9.317,5.365
				c3.262-1.65,5.333-7.297,3.449-11.828c-0.213-0.512-0.393-1.01-0.551-1.551c0.325,1.551,0.425,1.838,0.292,0.859
				c-0.002,1.525,0.014,1.801,0.062,0.852c0.093-1.83-0.499,2.004-0.02,0.24c0.29-0.846,0.193-0.67-0.285,0.525
				c0.149-0.332,0.313-0.654,0.485-0.967c-4.115-3.197-8.231-6.391-12.347-9.586c-0.425,1.264-0.848,2.523-1.272,3.787
				c-1.498,4.457,0.687,10.162,4.15,12.156C76.137,190.621,79.948,188.365,81.445,183.912L81.445,183.912z"/>
		</g>
		<g>
			<path fill="#7A2823" d="M88.506,180.469c0.378-1.123,0.752-2.242,1.129-3.365c1.225-3.646-0.057-8.416-2.554-10.926
				c-3.058-3.07-7.696-2.656-9.789,1.338c-2.552,4.873-3.584,11.277-1.172,17.08c1.88,4.523,5.621,7.238,9.318,5.367
				c3.262-1.65,5.334-7.295,3.45-11.826c-0.25-0.604-0.443-1.189-0.594-1.84c0.185,0.801,0.369,1.602,0.554,2.4
				c-0.062-0.301-0.104-0.604-0.129-0.91c0.269,2.402,0.007,1.502,0.111,0.57c-0.278,2.477-0.217,1.229,0.027,0.475
				c-0.737,2.279-0.38,0.891-0.055,0.27c-4.117-3.195-8.23-6.393-12.346-9.59c-0.377,1.125-0.755,2.246-1.133,3.369
				c-1.498,4.457,0.686,10.162,4.149,12.158C83.19,187.18,87.01,184.922,88.506,180.469L88.506,180.469z"/>
		</g>
		<g>
			<path fill="#772B21" d="M95.562,177.025c0.33-0.98,0.66-1.963,0.99-2.945c1.225-3.646-0.061-8.416-2.558-10.924
				c-3.057-3.07-7.698-2.658-9.791,1.336c-2.394,4.568-3.364,10.631-1.101,16.076c0.946,2.275,2.088,4.062,3.945,5.131
				c1.74,1.002,3.687,1.088,5.373,0.234c3.263-1.65,5.335-7.297,3.451-11.828c-0.22-0.525-0.386-1.039-0.517-1.609
				c0.185,0.801,0.364,1.602,0.549,2.402c-0.068-0.404-0.11-0.787-0.133-1.197c0.019,0.793,0.039,1.588,0.058,2.381
				c0.002-0.545,0.046-1.049,0.133-1.572c-0.135,0.748-0.27,1.494-0.404,2.242c0.119-0.541,0.271-1.039,0.459-1.541
				c-0.277,0.666-0.556,1.334-0.834,2c0.167-0.393,0.344-0.764,0.537-1.133c-4.115-3.197-8.233-6.391-12.348-9.586
				c-0.329,0.982-0.659,1.965-0.989,2.945c-1.498,4.459,0.683,10.164,4.146,12.156C90.246,183.734,94.065,181.479,95.562,177.025
				L95.562,177.025z"/>
		</g>
		<g>
			<path fill="#742D1F" d="M102.618,173.582c0.282-0.842,0.567-1.684,0.85-2.525c1.225-3.65-0.062-8.414-2.56-10.924
				c-3.056-3.068-7.694-2.658-9.785,1.338c-2.23,4.262-3.148,9.988-1.038,15.068c0.946,2.275,2.089,4.062,3.945,5.131
				c1.74,1.002,3.689,1.088,5.376,0.234c3.264-1.652,5.33-7.297,3.447-11.83c-0.143-0.34-0.257-0.672-0.361-1.033
				c0.185,0.801,0.365,1.6,0.55,2.4c-0.105-0.461-0.168-0.896-0.193-1.369c0.02,0.793,0.039,1.588,0.059,2.381
				c0.001-0.467,0.039-0.9,0.114-1.35c-0.135,0.748-0.271,1.498-0.406,2.246c0.102-0.465,0.234-0.893,0.396-1.322
				c-0.278,0.666-0.559,1.332-0.836,1.996c0.143-0.334,0.294-0.652,0.459-0.969c-4.114-3.193-8.229-6.391-12.345-9.586
				c-0.282,0.842-0.567,1.684-0.851,2.525c-1.496,4.457,0.686,10.162,4.15,12.158C97.306,180.293,101.123,178.037,102.618,173.582
				L102.618,173.582z"/>
		</g>
		<g>
			<path fill="#722F1D" d="M109.674,170.139c0.236-0.701,0.472-1.4,0.708-2.104c1.226-3.646-0.061-8.416-2.557-10.924
				c-3.056-3.068-7.696-2.658-9.787,1.336c-2.07,3.957-2.932,9.342-0.971,14.061c0.946,2.277,2.091,4.062,3.947,5.131
				c1.74,1.002,3.688,1.088,5.374,0.234s3.01-2.594,3.654-4.801c0.601-2.059,0.672-4.918-0.204-7.027
				c-0.118-0.283-0.219-0.561-0.307-0.861c0.185,0.801,0.371,1.602,0.556,2.4c-0.088-0.383-0.141-0.746-0.162-1.141
				c0.02,0.793,0.037,1.588,0.056,2.379c0.001-0.389,0.033-0.748,0.096-1.123c-0.136,0.748-0.27,1.496-0.404,2.244
				c0.085-0.387,0.193-0.744,0.327-1.102c-0.277,0.666-0.558,1.332-0.836,1.998c0.119-0.279,0.247-0.543,0.385-0.807
				c-4.114-3.195-8.229-6.391-12.344-9.588c-0.236,0.703-0.473,1.404-0.709,2.105c-1.497,4.455,0.686,10.162,4.148,12.156
				C104.362,176.848,108.177,174.592,109.674,170.139L109.674,170.139z"/>
		</g>
		<g>
			<path fill="#6F301B" d="M116.731,166.695c0.188-0.561,0.378-1.121,0.566-1.684c1.226-3.646-0.062-8.416-2.558-10.924
				c-3.057-3.07-7.697-2.656-9.788,1.338c-1.914,3.654-2.717,8.686-0.9,13.053c0.946,2.277,2.089,4.062,3.945,5.133
				c1.74,1.002,3.688,1.086,5.374,0.232s3.011-2.594,3.655-4.801c0.601-2.059,0.67-4.918-0.206-7.027
				c-0.126-0.301-0.222-0.592-0.297-0.918c0.185,0.801,0.37,1.6,0.554,2.4c-0.039-0.23-0.063-0.449-0.076-0.684
				c0.02,0.795,0.037,1.586,0.057,2.379c0.001-0.311,0.026-0.6,0.076-0.898c-0.135,0.748-0.27,1.496-0.404,2.244
				c0.067-0.309,0.154-0.594,0.262-0.881c-0.278,0.666-0.557,1.332-0.835,1.998c0.096-0.223,0.197-0.436,0.308-0.646
				c-4.115-3.195-8.23-6.391-12.346-9.586c-0.188,0.562-0.378,1.121-0.566,1.682c-1.496,4.459,0.682,10.164,4.146,12.158
				c1.74,1.002,3.69,1.088,5.377,0.234C114.828,170.611,115.991,168.902,116.731,166.695L116.731,166.695z"/>
		</g>
		<g>
			<path fill="#6D3219" d="M123.788,163.254c0.142-0.422,0.281-0.844,0.423-1.264c1.225-3.648-0.06-8.416-2.556-10.924
				c-3.052-3.066-7.704-2.662-9.79,1.336c-0.979,1.877-1.379,3.391-1.7,5.637c-0.265,1.855,0.143,4.758,0.868,6.408
				c0.313,0.715,0.672,1.447,1.008,2.172c0.801,1.303,1.782,2.293,2.938,2.961c1.735,1.004,3.686,1.086,5.372,0.232
				s3.012-2.592,3.656-4.801c0.602-2.061,0.67-4.914-0.204-7.025c-0.075-0.18-0.138-0.354-0.191-0.547
				c0.184,0.801,0.37,1.602,0.554,2.4c-0.053-0.244-0.081-0.475-0.089-0.725c0.02,0.793,0.034,1.586,0.054,2.379
				c0.005-0.184,0.019-0.355,0.044-0.535c-0.135,0.748-0.268,1.496-0.402,2.244c0.05-0.246,0.116-0.471,0.199-0.699
				c-0.278,0.666-0.556,1.332-0.834,1.998c0.074-0.178,0.15-0.348,0.238-0.516c-4.115-3.195-8.228-6.389-12.342-9.584
				c-0.142,0.42-0.286,0.84-0.428,1.262c-1.499,4.457,0.688,10.164,4.149,12.158c1.739,1.002,3.688,1.086,5.375,0.232
				C121.885,167.168,123.046,165.459,123.788,163.254L123.788,163.254z"/>
		</g>
		<g>
			<path fill="#6A3317" d="M130.844,159.807c0.095-0.281,0.189-0.559,0.284-0.84c1.227-3.646-0.06-8.416-2.556-10.922
				c-3.033-3.047-7.731-2.689-9.791,1.336c-0.913,1.785-1.281,3.084-1.552,5.23c-0.212,1.678,0.169,4.264,0.786,5.807
				c0.912,2.277,2.112,4.076,3.946,5.133c1.74,1.002,3.688,1.086,5.374,0.232c1.688-0.854,3.012-2.594,3.656-4.803
				c0.609-2.086,0.679-4.953-0.207-7.023c-0.046-0.109-0.089-0.225-0.12-0.346c0.185,0.801,0.365,1.6,0.55,2.4
				c-0.038-0.176-0.055-0.332-0.062-0.514c0.02,0.793,0.039,1.586,0.058,2.379c0-0.113,0.011-0.225,0.029-0.336
				c-0.135,0.748-0.271,1.496-0.405,2.244c0.036-0.176,0.082-0.332,0.142-0.494c-0.278,0.666-0.557,1.33-0.835,1.996
				c0.046-0.111,0.096-0.221,0.152-0.322c-4.115-3.195-8.23-6.391-12.346-9.586c-0.095,0.281-0.188,0.559-0.283,0.84
				c-1.498,4.455,0.688,10.166,4.151,12.16c1.74,1.002,3.686,1.086,5.372,0.232C128.942,163.723,130.102,162.012,130.844,159.807
				L130.844,159.807z"/>
		</g>
		<g>
			<path fill="#673515" d="M137.901,156.365c0.047-0.139,0.098-0.279,0.145-0.42c1.229-3.645-0.066-8.416-2.561-10.923
				c-1.492-1.499-3.368-2.237-5.166-2.021c-1.74,0.209-3.697,1.404-4.623,3.355c-0.912,1.922-1.024,2.508-1.395,4.738
				c-0.249,1.496,0.208,3.9,0.699,5.293c1.645,4.66,5.804,7.143,9.319,5.365c3.444-1.742,5.097-7.164,3.45-11.826
				c-0.021-0.057-0.039-0.115-0.06-0.174c0.184,0.801,0.365,1.602,0.549,2.402c-0.01-0.057-0.018-0.115-0.027-0.172
				c0.019,0.793,0.036,1.586,0.055,2.377c-0.009-0.115,0.004-0.227,0.031-0.336c-0.135,0.75-0.271,1.498-0.405,2.246
				c0.018-0.055,0.035-0.109,0.053-0.166c-0.278,0.666-0.556,1.332-0.834,1.998c0.025-0.053,0.054-0.107,0.079-0.162
				c-4.115-3.195-8.232-6.389-12.348-9.586c-0.048,0.141-0.092,0.281-0.139,0.422c-1.49,4.461,0.677,10.158,4.147,12.156
				c1.74,1.002,3.686,1.088,5.372,0.234C135.994,160.281,137.165,158.572,137.901,156.365L137.901,156.365z"/>
		</g>
		<g>
			<path fill="#653614" d="M131.431,149.959c1.526,11.803,15.395,10.115,13.872-1.66
				C143.777,136.496,129.907,138.183,131.431,149.959L131.431,149.959z"/>
		</g>
		<g>
			<path fill="#653614" d="M132.416,138.049c-1.866-0.402-3.886-0.294-5.566,0.703c-2.312,1.371-3.683,3.509-4.785,6.418
				c-1.426,3.766-0.836,8.902,0.393,12.826c1.485,4.744,5.928,7.082,9.321,5.365c3.566-1.805,4.935-7.088,3.451-11.826
				c-0.103-0.328-0.191-0.652-0.273-0.99c0.184,0.801,0.367,1.6,0.552,2.4c-0.143-0.678-0.229-1.346-0.266-2.039
				c0.02,0.793,0.036,1.586,0.056,2.379c-0.013-0.66,0.025-1.289,0.131-1.926c-0.135,0.748-0.269,1.498-0.403,2.246
				c0.082-0.389,0.182-0.746,0.317-1.104c-0.277,0.666-0.553,1.332-0.831,1.998c0.147-0.328,0.307-0.613,0.51-0.885
				c-0.41,0.547-0.817,1.094-1.227,1.639c0.164-0.182,0.327-0.334,0.516-0.477c-0.531,0.391-1.062,0.777-1.592,1.168
				c0.208-0.125,0.403-0.209,0.628-0.281c-0.601,0.184-1.198,0.365-1.799,0.549c0.253-0.049,0.486-0.064,0.745-0.059
				c-0.607-0.031-1.212-0.062-1.819-0.094c0.189,0.014,0.383,0.051,0.567,0.094c3.71,0.889,7.304-2.559,7.684-7.504
				C139.103,143.735,136.223,138.871,132.416,138.049L132.416,138.049z"/>
		</g>
		<g>
			<path fill="#653614" d="M125.777,136.022c-6.099-1.316-10.845,2.172-13.423,8.983c-2.073,5.479-1.207,12.914,0.581,18.631
				c1.484,4.744,5.925,7.082,9.317,5.365c3.566-1.805,4.936-7.086,3.452-11.828c-0.153-0.488-0.649-2.693-0.139-0.258
				c-0.142-0.674-0.223-1.361-0.301-2.045c-0.261-2.277-0.067,1.924-0.035-0.311c0.009-0.633,0.489-3.252-0.018-0.855
				c0.125-0.592,0.839-2.195-0.096-0.117c0.299-0.664,1.238-1.498-0.109,0.008c1.103-1.23-1.489,0.791-0.062,0.15
				c-1.056,0.295-1.187,0.385-0.386,0.273c-0.936-0.066-0.968-0.045-0.162,0.111c3.749,0.725,7.307-2.561,7.686-7.504
				C132.462,141.71,129.585,136.844,125.777,136.022L125.777,136.022z"/>
		</g>
		<g>
			<path fill="#653614" d="M112.177,154.229c-1.559-0.865-3.108-1.75-4.649-2.674c-0.696-0.418-1.389-0.859-2.076-1.305
				c-0.251-0.162-2.729-1.963-1.333-0.867c-0.47-0.369-0.919-0.785-1.363-1.207c-1.338-1.275,1.019,1.588,0.086,0.195
				c1.574,2.35,1.313,6.209,0.172,8.459c-0.382,0.752-0.889,1.311-1.545,1.633c0.333-0.201,0.682-0.371,1.023-0.525
				c3.479-1.568,5.024-7.217,3.451-11.828c-1.625-4.761-5.805-7.027-9.316-5.365c-2.814,1.331-5.027,3.514-6.228,7.137
				c-1.231,3.719-0.152,8.541,1.939,11.666c3.784,5.652,9.875,8.586,14.96,11.406c3.608,2.002,7.687,0.037,9.03-4.568
				C117.644,161.877,115.786,156.229,112.177,154.229L112.177,154.229z"/>
		</g>
		<g>
			<path fill="#653614" d="M96.825,171.742c-6.971-5.379-18.469-17.32-12.506-26.037c2.27-3.317,3.53-8.432,0.853-12.833
				c-2.254-3.704-7.266-5.399-9.904-2.03c-15.212,19.427-0.092,45.212,16.678,57.624c3.422,2.533,7.804-0.363,9.03-4.568
				C102.407,178.992,100.257,174.268,96.825,171.742L96.825,171.742z"/>
		</g>
		<g>
			<path fill="#653614" d="M103.385,145.816c-0.489-0.924-0.491-0.911-0.012,0.037c-0.121-0.287-0.83-2.809-0.37-0.745
				c-0.183-0.818-0.258-1.66-0.332-2.494c0.164,1.858,0.115-0.691,0.144-0.987c-0.161,1.689,0.257-0.777,0.332-1.017
				c-0.455,1.458,0.53-0.859,0.611-0.993c-0.675,1.116,0.975-0.906,0.978-0.907c-0.704,0.659,1.587-0.844,1.436-0.769
				c8.255-4.113,2.187-21.366-5.866-17.192c-12.725,6.595-13.985,24.167-7.672,35.871c2.275,4.219,7.11,4.834,9.906,2.029
				C105.601,155.576,105.667,150.033,103.385,145.816L103.385,145.816z"/>
		</g>
		<g>
			<path fill="#653614" d="M106.163,129.76c2.935-2.678,12.48-5.355,16.483-2.213c3.376,2.65,7.394,2.913,9.792-1.336
				c1.991-3.529,1.659-10.323-1.725-12.922c-9.906-7.61-24.388-6.64-33.607,1.609C89.94,121.31,98.996,136.301,106.163,129.76
				L106.163,129.76z"/>
		</g>
		<g>
			<path fill="#653614" d="M105.141,151.004c5.648-1.535,13.432-3.555,19.271-0.982c8.686,3.828,13.646-12.862,4.882-16.724
				c-8.51-3.75-18.037-2.868-26.417-0.592c-3.685,1.001-6.475,4.586-5.805,9.98C97.638,147.248,101.446,152.006,105.141,151.004
				L105.141,151.004z"/>
		</g>
		<g>
			<path fill="#653614" d="M105.693,170.436c6.822,2.051,13.789,0.99,20.638,1.521c3.83,0.299,7.274-2.176,7.684-7.508
				c0.348-4.52-2.474-10.303-6.305-10.602c-6.82-0.529-13.857,0.518-20.637-1.52C98.094,149.629,96.792,167.762,105.693,170.436
				L105.693,170.436z"/>
		</g>
		<g>
			<path fill="#653614" d="M104.727,188.041c8.132,6.725,16.665,7.473,25.397,4.701c3.663-1.162,4.898-7.586,3.451-11.828
				c-1.752-5.131-5.669-6.525-9.321-5.365c-3.501,1.111-8.168,0.961-11.464-1.768c-3.328-2.754-7.431-2.84-9.788,1.336
				C100.97,178.719,101.382,185.273,104.727,188.041L104.727,188.041z"/>
		</g>
	</g>
</g>
</svg>
